<?xml version="1.0" encoding="UTF-8"?>
<svg version="1.1" xmlns="http://www.w3.org/2000/svg" width="500" height="500">
<path d="M0 0 C0.99 0.495 0.99 0.495 2 1 C0.88266271 2.50571657 -0.24410035 4.00444292 -1.375 5.5 C-2.00148438 6.3353125 -2.62796875 7.170625 -3.2734375 8.03125 C-4.12808594 9.00578125 -4.12808594 9.00578125 -5 10 C-5.66 10 -6.32 10 -7 10 C-7.37125 11.0828125 -7.37125 11.0828125 -7.75 12.1875 C-9 15 -9 15 -10.828125 17.25390625 C-13.20682416 20.26150609 -15.12629338 23.41740106 -17 26.75 C-17.35030273 27.37124756 -17.70060547 27.99249512 -18.06152344 28.63256836 C-28.23520472 46.87740174 -34.22161427 69.31366206 -28.8125 90.125 C-28.24935532 91.76466778 -27.64431828 93.39049812 -27 95 C-26.64808594 95.96679688 -26.29617188 96.93359375 -25.93359375 97.9296875 C-22.97624283 105.60123147 -19.22708442 113.84047172 -13.2890625 119.68359375 C-12 121 -12 121 -12 123 C-11.34 123 -10.68 123 -10 123 C-8.58984375 124.3984375 -8.58984375 124.3984375 -6.9375 126.375 C-3.41048797 130.52920036 0.22013217 134.57417729 3.88671875 138.60546875 C5.28882918 140.19418168 6.647094 141.82275226 7.95703125 143.48828125 C10.14981997 146.18419549 12.53765195 148.54857953 15 151 C37 175.02324037 37 175.02324037 37 180 C37.66 180 38.32 180 39 180 C41.59971283 183.4845755 43.75241152 187.2812627 46 191 C46.60714844 191.98355469 47.21429688 192.96710938 47.83984375 193.98046875 C56.75984377 208.75604865 64.37220939 226.55625846 60.52832031 244.16015625 C59.30303391 248.88069013 57.87002708 253.49493476 56 258 C55.34 258.33 54.68 258.66 54 259 C53.81824219 257.88882812 53.63648438 256.77765625 53.44921875 255.6328125 C50.22803271 236.33610531 44.45052971 218.67813691 27.6875 206.6875 C16.80958621 199.91232878 4.20607668 197.24545496 -8.40234375 199.6484375 C-20.34236703 202.73569214 -30.75742812 207.76754589 -38 218 C-38.54398438 218.76183594 -39.08796875 219.52367187 -39.6484375 220.30859375 C-46.7731069 231.16937027 -48.47804186 243.33114281 -46.53125 256.06640625 C-44.0388345 267.44546988 -38.66339861 277.29307477 -31 286 C-30.09121094 287.03253906 -30.09121094 287.03253906 -29.1640625 288.0859375 C-24.83720161 292.69536889 -20.17444856 296.00469902 -14.79296875 299.29296875 C6.59986547 312.36802966 24.00969906 330.59831498 30.60205078 355.25146484 C34.22094023 371.33433996 33.46051278 389.45716786 28 405 C27.43925781 406.60681641 27.43925781 406.60681641 26.8671875 408.24609375 C22.34126384 420.01049797 15.06201186 429.44559282 7 439 C6.21625 440.03125 5.4325 441.0625 4.625 442.125 C0.52558541 446.61483503 -4.22287345 450.25667877 -9 454 C-9.69480469 454.54914063 -10.38960937 455.09828125 -11.10546875 455.6640625 C-13.04057869 457.15629161 -15.00512937 458.58871485 -17 460 C-17.72574219 460.51820313 -18.45148438 461.03640625 -19.19921875 461.5703125 C-31.2442599 469.701188 -44.92954711 475.75576359 -58.5625 480.6875 C-59.25811035 480.94345947 -59.9537207 481.19941895 -60.67041016 481.46313477 C-64.23994685 482.69080265 -66.41225713 483.1107366 -70 482 C-69.5373877 481.68361572 -69.07477539 481.36723145 -68.59814453 481.04125977 C-59.59356133 474.85662119 -50.75650688 468.74347073 -43 461 C-41.64841797 459.66582031 -41.64841797 459.66582031 -40.26953125 458.3046875 C-25.22983915 442.97676926 -17.70861107 425.29388426 -16 404 C-16.721875 405.051875 -17.44375 406.10375 -18.1875 407.1875 C-20.46376648 410.50434545 -23.11511651 413.19934669 -26 416 C-26.89976562 416.87398438 -27.79953125 417.74796875 -28.7265625 418.6484375 C-41.91511777 431.0549221 -57.8536585 440.09672124 -75 446 C-76.40572266 446.48726563 -76.40572266 446.48726563 -77.83984375 446.984375 C-96.04196014 452.72079956 -114.99299292 454.76452766 -134 454 C-130.60484997 451.0078097 -127.02038937 449.98076057 -122.75 448.8125 C-101.18938214 442.47654119 -79.34148448 429.18611934 -67 410 C-64.39636933 405.12399576 -62.16806359 400.08139904 -60 395 C-60.33 394.67 -60.66 394.34 -61 394 C-61.60585938 394.44730469 -62.21171875 394.89460938 -62.8359375 395.35546875 C-83.9426553 410.58477744 -107.78101521 416.22658514 -133.4375 416.25 C-134.20044373 416.25100708 -134.96338745 416.25201416 -135.74945068 416.25305176 C-146.81247253 416.24315769 -157.23290716 415.73798391 -168 413 C-169.48380152 412.65766104 -170.96820465 412.31792168 -172.453125 411.98046875 C-183.34957599 409.433616 -183.34957599 409.433616 -187 407 C-186.29617187 406.95512451 -185.59234375 406.91024902 -184.8671875 406.86401367 C-162.89622363 405.42449964 -142.65221433 403.55127427 -122.890625 392.91796875 C-121 392 -121 392 -119 392 C-119 391.34 -119 390.68 -119 390 C-117.66549637 389.12203709 -116.32801026 388.2484424 -114.98046875 387.390625 C-108.20019197 382.6297206 -102.4508756 376.97303844 -98 370 C-98.70382813 370.25394531 -99.40765625 370.50789063 -100.1328125 370.76953125 C-101.12023437 371.11371094 -102.10765625 371.45789063 -103.125 371.8125 C-104.07632813 372.14894531 -105.02765625 372.48539062 -106.0078125 372.83203125 C-116.63287617 376.12420114 -127.08346711 377.58398069 -138.1875 377.5625 C-139.47325928 377.56080811 -140.75901855 377.55911621 -142.08374023 377.55737305 C-159.66739334 377.23539912 -178.02823201 373.58447713 -194 366 C-194.60779297 365.71398926 -195.21558594 365.42797852 -195.84179688 365.13330078 C-222.83275435 352.3344913 -222.83275435 352.3344913 -225 348 C-220.17573959 348.93429571 -215.36772925 349.88678513 -210.59765625 351.0703125 C-191.45682314 355.6425168 -170.76238847 356.56344108 -152 350 C-151.06542969 349.68804687 -150.13085938 349.37609375 -149.16796875 349.0546875 C-141.44628289 346.23170557 -134.53375752 341.94532237 -128 337 C-128.6077124 337.01571045 -129.2154248 337.0314209 -129.84155273 337.04760742 C-160.66487148 337.73566681 -189.43656274 330.73594092 -214 311 C-214 310.34 -214 309.68 -214 309 C-214.73089844 308.74992187 -215.46179688 308.49984375 -216.21484375 308.2421875 C-223.72339126 304.89335425 -229.5799037 297.49960609 -235.375 291.75 C-235.87459229 291.25516113 -236.37418457 290.76032227 -236.88891602 290.25048828 C-239.81023415 287.31586231 -242.47399084 284.28022042 -245 281 C-244.34 280.67 -243.68 280.34 -243 280 C-243 280.66 -243 281.32 -243 282 C-242.30261719 282.25394531 -241.60523438 282.50789063 -240.88671875 282.76953125 C-237.65549525 284.14684573 -234.81367434 285.86241309 -231.8125 287.6875 C-210.51624812 300.11719683 -184.49987374 307.339051 -160.125 301.0625 C-157.73935082 300.40575509 -155.37136173 299.70799649 -153 299 C-151.66894843 298.65766885 -150.33681385 298.31908873 -149 298 C-149 297.34 -149 296.68 -149 296 C-149.804375 295.99613281 -149.804375 295.99613281 -150.625 295.9921875 C-163.26695122 295.36840701 -175.3101458 289.4070047 -186 283 C-186.80824219 282.53207031 -187.61648437 282.06414062 -188.44921875 281.58203125 C-192.57607661 279.12608268 -192.57607661 279.12608268 -194 278 C-194 277.34 -194 276.68 -194 276 C-194.56847656 275.73832031 -195.13695312 275.47664063 -195.72265625 275.20703125 C-198.18238334 273.9033337 -200.24484579 272.40134237 -202.4375 270.6875 C-203.17871094 270.11386719 -203.91992188 269.54023438 -204.68359375 268.94921875 C-220.09345122 255.98207056 -230.89006428 237.46254787 -240.4375 220 C-240.80431885 219.34016113 -241.1711377 218.68032227 -241.54907227 218.00048828 C-242.4288925 216.36595889 -243.22251217 214.68561047 -244 213 C-243.505 212.01 -243.505 212.01 -243 211 C-240.14884267 213.76729976 -237.48375322 216.57338354 -234.9375 219.625 C-232.81418741 222.15432068 -230.67147604 224.04776751 -228 226 C-228 226.66 -228 227.32 -228 228 C-227.1646875 228.37125 -227.1646875 228.37125 -226.3125 228.75 C-223.59288889 230.22006006 -221.41292095 232.06616625 -219 234 C-202.76100094 245.73757756 -186.38784213 253.28891769 -166.0625 253.0625 C-165.28326172 253.05798828 -164.50402344 253.05347656 -163.70117188 253.04882812 C-161.80074732 253.03716908 -159.90036294 253.01923877 -158 253 C-159.27230469 252.23429687 -159.27230469 252.23429687 -160.5703125 251.453125 C-167.3986637 247.25385585 -173.7771136 242.77661183 -179.875 237.5625 C-180.48746582 237.04268555 -181.09993164 236.52287109 -181.73095703 235.98730469 C-183.1976326 234.70654574 -184.60524162 233.35872359 -186 232 C-186 231.34 -186 230.68 -186 230 C-186.99 229.67 -187.98 229.34 -189 229 C-205.6979215 209.89784129 -215.36671654 186.34606896 -221.3125 162 C-221.5794165 160.91283691 -221.84633301 159.82567383 -222.12133789 158.70556641 C-222.3661792 157.66835449 -222.61102051 156.63114258 -222.86328125 155.5625 C-223.08282471 154.63566406 -223.30236816 153.70882812 -223.52856445 152.75390625 C-224.03620529 149.78850563 -224.08043321 147.00283983 -224 144 C-220.68639202 146.20907199 -220.47816748 146.79477593 -219.25 150.375 C-213.94662522 164.30386358 -204.82941662 176.84121239 -194 187 C-193.24460938 187.79535156 -192.48921875 188.59070313 -191.7109375 189.41015625 C-188.81222886 192.17938367 -185.75118219 194.37221681 -182.375 196.5 C-181.76035889 196.88873291 -181.14571777 197.27746582 -180.51245117 197.67797852 C-171.66801079 203.1703588 -163.38413391 206.65428052 -153 208 C-153.33 207.01 -153.66 206.02 -154 205 C-154.57878906 204.72285156 -155.15757812 204.44570312 -155.75390625 204.16015625 C-163.44784241 200.18607096 -169.359087 189.61068267 -173 182 C-173.56460938 180.8553125 -174.12921875 179.710625 -174.7109375 178.53125 C-188.00702522 151.17708067 -193.03972206 117.0519504 -187 87 C-186.34 86.34 -185.68 85.68 -185 85 C-184.78085938 86.23492187 -184.56171875 87.46984375 -184.3359375 88.7421875 C-179.55656337 114.68293734 -171.0237713 142.43052103 -149 159 C-147.70642578 159.97646484 -147.70642578 159.97646484 -146.38671875 160.97265625 C-141.66021806 164.77406282 -141.66021806 164.77406282 -136 166 C-136.38671875 165.26136719 -136.7734375 164.52273437 -137.171875 163.76171875 C-153.34856339 132.24920943 -153.78938226 97.93581422 -143.28515625 64.31640625 C-140.41712837 55.65398451 -137.0681714 47.17383747 -133 39 C-132.34 39.33 -131.68 39.66 -131 40 C-131.21112427 40.94202271 -131.21112427 40.94202271 -131.42651367 41.90307617 C-133.03432714 49.7465699 -133.33347307 57.32175984 -133.3125 65.3125 C-133.32861328 66.52873047 -133.34472656 67.74496094 -133.36132812 68.99804688 C-133.37325281 91.45222613 -126.19608432 113.59505679 -110.28515625 129.7578125 C-109.53105469 130.49773437 -108.77695313 131.23765625 -108 132 C-108.144375 131.2678125 -108.28875 130.535625 -108.4375 129.78125 C-113.86007932 98.1495373 -107.63172472 69.5840633 -92 42 C-91.04110294 40.25030882 -90.08264435 38.50037713 -89.125 36.75 C-88.41819929 35.49913276 -87.71010306 34.2489955 -87 33 C-86.443125 31.989375 -85.88625 30.97875 -85.3125 29.9375 C-84.879375 29.298125 -84.44625 28.65875 -84 28 C-83.34 28 -82.68 28 -82 28 C-81.76152344 27.28070313 -81.52304688 26.56140625 -81.27734375 25.8203125 C-79.80537457 22.57027657 -77.98968699 20.48153578 -75.5625 17.875 C-74.78003906 17.02679687 -73.99757813 16.17859375 -73.19140625 15.3046875 C-71.48442037 13.50946171 -69.76559133 11.73720562 -68 10 C-69.51000373 14.7359208 -71.1236048 19.39561487 -73 24 C-73.66798017 25.66614066 -74.33471554 27.33278111 -75 29 C-75.40412109 29.99 -75.40412109 29.99 -75.81640625 31 C-78.80462521 39.01030423 -79.80084159 47.57724883 -81 56 C-81.17015625 57.11761719 -81.3403125 58.23523438 -81.515625 59.38671875 C-83.38727979 75.27544038 -79.46354234 92.46817359 -71 106 C-70.93530518 105.4423999 -70.87061035 104.8847998 -70.80395508 104.31030273 C-68.48728328 84.95167613 -63.38532385 69.77854404 -53.95214844 52.7331543 C-53.27600525 51.50240033 -52.62800079 50.25600158 -52 49 C-51.34 49 -50.68 49 -50 49 C-49.71125 48.236875 -49.4225 47.47375 -49.125 46.6875 C-48 44 -48 44 -46 41 C-45.34 41 -44.68 41 -44 41 C-43.731875 40.195625 -43.46375 39.39125 -43.1875 38.5625 C-42.795625 37.716875 -42.40375 36.87125 -42 36 C-41.01 35.67 -40.02 35.34 -39 35 C-38.71125 34.4225 -38.4225 33.845 -38.125 33.25 C-36.94133824 30.88267649 -35.50939748 29.35756358 -33.60546875 27.54296875 C-32.37604673 26.36140744 -31.17542827 25.1498105 -29.98828125 23.92578125 C-22.73073951 16.46558564 -14.81435572 10.47269605 -6.26171875 4.578125 C-4.13793733 3.09624642 -2.06189384 1.56647312 0 0 Z " fill="#0065FE" transform="translate(333,12)"/>
<path d="M0 0 C-4.61539944 3.73991851 -9.37766014 7.25920999 -14.16015625 10.78125 C-18.49045892 14.1644851 -21.2957154 17.23144328 -23.9296875 22.07421875 C-25.06817252 24.12266077 -26.30123976 26.08753261 -27.5625 28.0625 C-35.03193145 40.02275526 -36.95102224 52.15669531 -33.875 66.0625 C-30.99587291 76.2605296 -25.97822236 85.07155161 -19 93 C-18.39414062 93.68835938 -17.78828125 94.37671875 -17.1640625 95.0859375 C-12.83720161 99.69536889 -8.17444856 103.00469902 -2.79296875 106.29296875 C18.59986547 119.36802966 36.00969906 137.59831498 42.60205078 162.25146484 C46.22094023 178.33433996 45.46051278 196.45716786 40 212 C39.62617188 213.07121094 39.25234375 214.14242187 38.8671875 215.24609375 C34.34126384 227.01049797 27.06201186 236.44559282 19 246 C18.21625 247.03125 17.4325 248.0625 16.625 249.125 C12.52558541 253.61483503 7.77712655 257.25667877 3 261 C2.30519531 261.54914063 1.61039063 262.09828125 0.89453125 262.6640625 C-1.04057869 264.15629161 -3.00512937 265.58871485 -5 267 C-5.72574219 267.51820313 -6.45148438 268.03640625 -7.19921875 268.5703125 C-19.2442599 276.701188 -32.92954711 282.75576359 -46.5625 287.6875 C-47.25811035 287.94345947 -47.9537207 288.19941895 -48.67041016 288.46313477 C-52.23994685 289.69080265 -54.41225713 290.1107366 -58 289 C-57.5373877 288.68361572 -57.07477539 288.36723145 -56.59814453 288.04125977 C-47.59356133 281.85662119 -38.75650688 275.74347073 -31 268 C-29.64841797 266.66582031 -29.64841797 266.66582031 -28.26953125 265.3046875 C-13.22983915 249.97676926 -5.70861107 232.29388426 -4 211 C-4.721875 212.051875 -5.44375 213.10375 -6.1875 214.1875 C-8.46376648 217.50434545 -11.11511651 220.19934669 -14 223 C-14.89976562 223.87398437 -15.79953125 224.74796875 -16.7265625 225.6484375 C-29.91511777 238.0549221 -45.8536585 247.09672124 -63 253 C-63.93714844 253.32484375 -64.87429688 253.6496875 -65.83984375 253.984375 C-84.04196014 259.72079956 -102.99299292 261.76452766 -122 261 C-118.60484997 258.0078097 -115.02038937 256.98076057 -110.75 255.8125 C-89.18938214 249.47654119 -67.34148448 236.18611934 -55 217 C-52.39636933 212.12399576 -50.16806359 207.08139904 -48 202 C-48.33 201.67 -48.66 201.34 -49 201 C-49.60585938 201.44730469 -50.21171875 201.89460937 -50.8359375 202.35546875 C-71.9426553 217.58477744 -95.78101521 223.22658514 -121.4375 223.25 C-122.20044373 223.25100708 -122.96338745 223.25201416 -123.74945068 223.25305176 C-134.81247253 223.24315769 -145.23290716 222.73798391 -156 220 C-157.48380152 219.65766104 -158.96820465 219.31792168 -160.453125 218.98046875 C-171.34957599 216.433616 -171.34957599 216.433616 -175 214 C-174.29617187 213.95512451 -173.59234375 213.91024902 -172.8671875 213.86401367 C-150.89622363 212.42449964 -130.65221433 210.55127427 -110.890625 199.91796875 C-109 199 -109 199 -107 199 C-107 198.34 -107 197.68 -107 197 C-105.66549637 196.12203709 -104.32801026 195.2484424 -102.98046875 194.390625 C-96.20019197 189.6297206 -90.4508756 183.97303844 -86 177 C-86.70382813 177.25394531 -87.40765625 177.50789062 -88.1328125 177.76953125 C-89.12023437 178.11371094 -90.10765625 178.45789063 -91.125 178.8125 C-92.07632813 179.14894531 -93.02765625 179.48539063 -94.0078125 179.83203125 C-104.63287617 183.12420114 -115.08346711 184.58398069 -126.1875 184.5625 C-127.47325928 184.56080811 -128.75901855 184.55911621 -130.08374023 184.55737305 C-147.66739334 184.23539912 -166.02823201 180.58447713 -182 173 C-182.60779297 172.71398926 -183.21558594 172.42797852 -183.84179688 172.13330078 C-210.83275435 159.3344913 -210.83275435 159.3344913 -213 155 C-208.17573959 155.93429571 -203.36772925 156.88678513 -198.59765625 158.0703125 C-179.45682314 162.6425168 -158.76238847 163.56344108 -140 157 C-139.06542969 156.68804687 -138.13085938 156.37609375 -137.16796875 156.0546875 C-117.63607142 148.91399385 -105.03932672 135.36025989 -96.2421875 116.921875 C-92.92949975 109.76886779 -89.92498936 102.47862459 -86.85571289 95.21899414 C-83.0154737 86.20484106 -78.94152381 77.32606911 -74.6875 68.5 C-73.84421143 66.74006714 -73.84421143 66.74006714 -72.98388672 64.94458008 C-69.32309611 57.41567252 -65.31563377 50.17182716 -61 43 C-60.14801025 41.56793213 -60.14801025 41.56793213 -59.27880859 40.10693359 C-48.37884236 21.96585278 -33.24598311 6.20276275 -12.36328125 0.6796875 C-8.0860346 -0.18470381 -4.34358799 -0.29955779 0 0 Z " fill="#D4A901" transform="translate(321,205)"/>
<path d="M0 0 C0.99 0.495 0.99 0.495 2 1 C0.88266271 2.50571657 -0.24410035 4.00444292 -1.375 5.5 C-2.00148438 6.3353125 -2.62796875 7.170625 -3.2734375 8.03125 C-4.12808594 9.00578125 -4.12808594 9.00578125 -5 10 C-5.66 10 -6.32 10 -7 10 C-7.37125 11.0828125 -7.37125 11.0828125 -7.75 12.1875 C-9 15 -9 15 -10.828125 17.25390625 C-13.20682416 20.26150609 -15.12629338 23.41740106 -17 26.75 C-17.35030273 27.37124756 -17.70060547 27.99249512 -18.06152344 28.63256836 C-28.23520472 46.87740174 -34.22161427 69.31366206 -28.8125 90.125 C-28.24935532 91.76466778 -27.64431828 93.39049812 -27 95 C-26.64808594 95.96679688 -26.29617188 96.93359375 -25.93359375 97.9296875 C-22.97624283 105.60123147 -19.22708442 113.84047172 -13.2890625 119.68359375 C-12 121 -12 121 -12 123 C-11.34 123 -10.68 123 -10 123 C-8.58984375 124.3984375 -8.58984375 124.3984375 -6.9375 126.375 C-3.41048797 130.52920036 0.22013217 134.57417729 3.88671875 138.60546875 C5.28882918 140.19418168 6.647094 141.82275226 7.95703125 143.48828125 C10.14981997 146.18419549 12.53765195 148.54857953 15 151 C37 175.02324037 37 175.02324037 37 180 C37.66 180 38.32 180 39 180 C41.59971283 183.4845755 43.75241152 187.2812627 46 191 C46.91072266 192.47533203 46.91072266 192.47533203 47.83984375 193.98046875 C56.75984377 208.75604865 64.37220939 226.55625846 60.52832031 244.16015625 C59.30303391 248.88069013 57.87002708 253.49493476 56 258 C55.34 258.33 54.68 258.66 54 259 C53.81824219 257.88882812 53.63648438 256.77765625 53.44921875 255.6328125 C50.27737146 236.63167204 44.81080902 223.16247314 31 209 C31.66 208.67 32.32 208.34 33 208 C38.35884744 212.02508985 43.48831358 216.02557651 48 221 C48 221.66 48 222.32 48 223 C48.66 223 49.32 223 50 223 C50.33 223 50.66 223 51 223 C49.2201733 209.87377807 40.35320879 197.89270939 30.16796875 189.73046875 C9.13974079 174.51028402 -16.01188602 166.72702781 -40.69726562 159.66064453 C-43.19062414 158.94531076 -45.68125821 158.22091294 -48.171875 157.49609375 C-59.31285543 154.26891064 -59.31285543 154.26891064 -70.55297852 151.41333008 C-78.09628287 149.62716798 -85.01806522 147.36934659 -92 144 C-92.60183105 143.72704102 -93.20366211 143.45408203 -93.82373047 143.17285156 C-104.81717858 138.11871362 -104.81717858 138.11871362 -107.515625 133.28515625 C-108.30108387 130.47829587 -108.7298007 127.89960141 -109 125 C-109.17402344 123.96746094 -109.34804687 122.93492187 -109.52734375 121.87109375 C-113.06541875 92.89396706 -106.19448433 67.0478793 -92 42 C-91.04110294 40.25030882 -90.08264435 38.50037713 -89.125 36.75 C-88.41819929 35.49913276 -87.71010306 34.2489955 -87 33 C-86.443125 31.989375 -85.88625 30.97875 -85.3125 29.9375 C-84.879375 29.298125 -84.44625 28.65875 -84 28 C-83.34 28 -82.68 28 -82 28 C-81.76152344 27.28070313 -81.52304688 26.56140625 -81.27734375 25.8203125 C-79.80537457 22.57027657 -77.98968699 20.48153578 -75.5625 17.875 C-74.78003906 17.02679687 -73.99757813 16.17859375 -73.19140625 15.3046875 C-71.48442037 13.50946171 -69.76559133 11.73720562 -68 10 C-69.51000373 14.7359208 -71.1236048 19.39561487 -73 24 C-73.66798017 25.66614066 -74.33471554 27.33278111 -75 29 C-75.26941406 29.66 -75.53882813 30.32 -75.81640625 31 C-78.80462521 39.01030423 -79.80084159 47.57724883 -81 56 C-81.17015625 57.11761719 -81.3403125 58.23523438 -81.515625 59.38671875 C-83.38727979 75.27544038 -79.46354234 92.46817359 -71 106 C-70.93530518 105.4423999 -70.87061035 104.8847998 -70.80395508 104.31030273 C-68.48728328 84.95167613 -63.38532385 69.77854404 -53.95214844 52.7331543 C-53.27600525 51.50240033 -52.62800079 50.25600158 -52 49 C-51.34 49 -50.68 49 -50 49 C-49.71125 48.236875 -49.4225 47.47375 -49.125 46.6875 C-48 44 -48 44 -46 41 C-45.34 41 -44.68 41 -44 41 C-43.731875 40.195625 -43.46375 39.39125 -43.1875 38.5625 C-42.795625 37.716875 -42.40375 36.87125 -42 36 C-41.01 35.67 -40.02 35.34 -39 35 C-38.71125 34.4225 -38.4225 33.845 -38.125 33.25 C-36.94133824 30.88267649 -35.50939748 29.35756358 -33.60546875 27.54296875 C-32.37604673 26.36140744 -31.17542827 25.1498105 -29.98828125 23.92578125 C-22.73073951 16.46558564 -14.81435572 10.47269605 -6.26171875 4.578125 C-4.13793733 3.09624642 -2.06189384 1.56647312 0 0 Z " fill="#8701A9" transform="translate(333,12)"/>
<path d="M0 0 C0 0.33 0 0.66 0 1 C-1.0621875 1.04898438 -2.124375 1.09796875 -3.21875 1.1484375 C-13.74501287 1.68360215 -13.74501287 1.68360215 -24 4 C-24 4.33 -24 4.66 -24 5 C-25.30710937 5.31130859 -25.30710937 5.31130859 -26.640625 5.62890625 C-35.29377519 7.86711285 -42.64688091 10.77168765 -50 16 C-50.33 16.66 -50.66 17.32 -51 18 C-51.66 18 -52.32 18 -53 18 C-49.51111623 9.78011676 -40.30634975 4.55999133 -33 0 C-45.20258498 -0.52228963 -56.7821094 4.18615896 -66 12 C-66.90234375 12.7425 -67.8046875 13.485 -68.734375 14.25 C-93.15218466 35.29518402 -106.67691974 69.58834423 -118.8203125 98.73828125 C-119.29847412 99.88385498 -119.77663574 101.02942871 -120.26928711 102.2097168 C-121.18268121 104.40931571 -122.08780769 106.61237534 -122.98266602 108.81958008 C-127.01324561 118.57098232 -131.897411 127.9010412 -138.5625 136.125 C-139.26503906 137.01445312 -139.96757812 137.90390625 -140.69140625 138.8203125 C-145.861013 143.70126101 -152.09677259 143.35528312 -158.8125 143.3125 C-159.74030273 143.30686035 -160.66810547 143.3012207 -161.62402344 143.29541016 C-187.164819 142.85324006 -213.03934806 133.03774925 -233 117 C-233 116.34 -233 115.68 -233 115 C-233.73089844 114.74992187 -234.46179688 114.49984375 -235.21484375 114.2421875 C-242.72339126 110.89335425 -248.5799037 103.49960609 -254.375 97.75 C-254.87459229 97.25516113 -255.37418457 96.76032227 -255.88891602 96.25048828 C-258.81023415 93.31586231 -261.47399084 90.28022042 -264 87 C-263.01 86.505 -263.01 86.505 -262 86 C-262 86.66 -262 87.32 -262 88 C-261.30261719 88.25394531 -260.60523438 88.50789063 -259.88671875 88.76953125 C-256.65549525 90.14684573 -253.81367434 91.86241309 -250.8125 93.6875 C-229.51624812 106.11719683 -203.49987374 113.339051 -179.125 107.0625 C-176.73935082 106.40575509 -174.37136173 105.70799649 -172 105 C-170.66894843 104.65766885 -169.33681385 104.31908873 -168 104 C-168 103.34 -168 102.68 -168 102 C-168.53625 101.99742187 -169.0725 101.99484375 -169.625 101.9921875 C-182.26695122 101.36840701 -194.3101458 95.4070047 -205 89 C-206.21236328 88.29810547 -206.21236328 88.29810547 -207.44921875 87.58203125 C-211.57607661 85.12608268 -211.57607661 85.12608268 -213 84 C-213 83.34 -213 82.68 -213 82 C-213.56847656 81.73832031 -214.13695312 81.47664063 -214.72265625 81.20703125 C-217.18238334 79.9033337 -219.24484579 78.40134237 -221.4375 76.6875 C-222.17871094 76.11386719 -222.91992188 75.54023438 -223.68359375 74.94921875 C-239.09345122 61.98207056 -249.89006428 43.46254787 -259.4375 26 C-259.80431885 25.34016113 -260.1711377 24.68032227 -260.54907227 24.00048828 C-261.4288925 22.36595889 -262.22251217 20.68561047 -263 19 C-262.67 18.34 -262.34 17.68 -262 17 C-259.14884267 19.76729976 -256.48375322 22.57338354 -253.9375 25.625 C-251.81418741 28.15432068 -249.67147604 30.04776751 -247 32 C-247 32.66 -247 33.32 -247 34 C-246.443125 34.2475 -245.88625 34.495 -245.3125 34.75 C-242.59288889 36.22006006 -240.41292095 38.06616625 -238 40 C-217.55726606 54.77604465 -196.21956469 61.85303288 -170.90966797 58.33276367 C-156.15761489 55.84365147 -143.94823326 47.67294174 -131.86328125 39.28662109 C-128.74568542 37.13387869 -125.5915119 35.03637082 -122.4375 32.9375 C-121.81464111 32.52258301 -121.19178223 32.10766602 -120.55004883 31.68017578 C-99.75713976 17.85073802 -78.66740367 4.36629995 -55 -4 C-54.1440625 -4.30808594 -53.288125 -4.61617187 -52.40625 -4.93359375 C-34.24541461 -11.25961808 -16.80371891 -8.37552134 0 0 Z " fill="#005502" transform="translate(352,206)"/>
<path d="M0 0 C1.19115973 3.57347918 0.62686743 5.30796701 0 9 C-0.12170686 11.79306935 -0.0953532 14.57995107 -0.0625 17.375 C-0.05798828 18.11105469 -0.05347656 18.84710938 -0.04882812 19.60546875 C-0.03715142 21.40368158 -0.01922011 23.20185197 0 25 C0.33 25 0.66 25 1 25 C1.13535156 26.06476563 1.27070313 27.12953125 1.41015625 28.2265625 C3.43692231 42.47334153 8.27159096 54.11093478 18 65 C18.60457031 65.68578125 19.20914063 66.3715625 19.83203125 67.078125 C24.15711949 71.69390146 28.82296924 75.0031212 34.20703125 78.29296875 C55.59986547 91.36802966 73.00969906 109.59831498 79.60205078 134.25146484 C83.22094023 150.33433996 82.46051278 168.45716786 77 184 C76.62617188 185.07121094 76.25234375 186.14242187 75.8671875 187.24609375 C71.34126384 199.01049797 64.06201186 208.44559282 56 218 C55.21625 219.03125 54.4325 220.0625 53.625 221.125 C49.52558541 225.61483503 44.77712655 229.25667877 40 233 C38.95779297 233.82371094 38.95779297 233.82371094 37.89453125 234.6640625 C35.95942131 236.15629161 33.99487063 237.58871485 32 239 C31.27425781 239.51820313 30.54851562 240.03640625 29.80078125 240.5703125 C17.7557401 248.701188 4.07045289 254.75576359 -9.5625 259.6875 C-10.25811035 259.94345947 -10.9537207 260.19941895 -11.67041016 260.46313477 C-15.23994685 261.69080265 -17.41225713 262.1107366 -21 261 C-20.5373877 260.68361572 -20.07477539 260.36723145 -19.59814453 260.04125977 C-10.59356133 253.85662119 -1.75650688 247.74347073 6 240 C6.90105469 239.11054688 7.80210937 238.22109375 8.73046875 237.3046875 C24.25695639 221.48064459 32.94791482 202.05538048 33.1875 179.75 C33.14046243 177.49962365 33.07965114 175.24945814 33 173 C32.99033203 171.83404297 32.99033203 171.83404297 32.98046875 170.64453125 C32.27920087 156.8009838 23.21153447 143.06871567 17.25732422 130.85473633 C12.6161909 121.32967845 8.16994732 111.7412061 4 102 C3.52175781 100.88882813 3.04351562 99.77765625 2.55078125 98.6328125 C0.18144659 93.04032888 -2.01494736 87.40766933 -4.03515625 81.6796875 C-4.6531538 79.96330565 -5.30410503 78.25822223 -5.99609375 76.5703125 C-13.29315596 58.34185359 -17.02181386 34.83901279 -10 16 C-7.16614667 10.30549566 -3.8848801 5.03376232 0 0 Z " fill="#DECC86" transform="translate(284,233)"/>
<path d="M0 0 C-4.61539944 3.73991851 -9.37766014 7.25920999 -14.16015625 10.78125 C-18.48890984 14.16327482 -21.28447389 17.23029875 -23.9296875 22.0625 C-25.08849474 24.16019485 -26.30861577 26.20774545 -27.5625 28.25 C-28.15224609 29.21679688 -28.15224609 29.21679688 -28.75390625 30.203125 C-30.01632925 32.02354688 -31.38814854 33.48626124 -33 35 C-30.08974164 24.55730822 -24.47261116 15.82017447 -17 8 C-16.34 8 -15.68 8 -15 8 C-15 7.34 -15 6.68 -15 6 C-33.94318882 13.72043593 -45.86684177 25.90377696 -54.11181641 44.78564453 C-65.82379257 73.98510133 -69.03537407 106.41300277 -71.87329102 137.46289062 C-73.09269242 149.9582456 -75.5158686 164.98297702 -83.65234375 175.04296875 C-98.42816949 186.79715324 -124.52441991 185.56497732 -142 184 C-155.60039191 182.08653639 -169.54278855 178.91552766 -182 173 C-182.60779297 172.71398926 -183.21558594 172.42797852 -183.84179688 172.13330078 C-210.83275435 159.3344913 -210.83275435 159.3344913 -213 155 C-208.17573959 155.93429571 -203.36772925 156.88678513 -198.59765625 158.0703125 C-179.45682314 162.6425168 -158.76238847 163.56344108 -140 157 C-139.06542969 156.68804687 -138.13085938 156.37609375 -137.16796875 156.0546875 C-117.63607142 148.91399385 -105.03932672 135.36025989 -96.2421875 116.921875 C-92.92949975 109.76886779 -89.92498936 102.47862459 -86.85571289 95.21899414 C-83.0154737 86.20484106 -78.94152381 77.32606911 -74.6875 68.5 C-73.84421143 66.74006714 -73.84421143 66.74006714 -72.98388672 64.94458008 C-69.32309611 57.41567252 -65.31563377 50.17182716 -61 43 C-60.14801025 41.56793213 -60.14801025 41.56793213 -59.27880859 40.10693359 C-48.37884236 21.96585278 -33.24598311 6.20276275 -12.36328125 0.6796875 C-8.0860346 -0.18470381 -4.34358799 -0.29955779 0 0 Z " fill="#71C737" transform="translate(321,205)"/>
<path d="M0 0 C0 2 0 2 -2.25 4.3125 C-3.1575 5.199375 -4.065 6.08625 -5 7 C-10.45334368 13.15700093 -14.49046517 20.59098204 -18 28 C-19.30230734 24.99353048 -18.96485975 23.90644333 -17.78515625 20.765625 C-17.21667969 19.60546875 -16.64820313 18.4453125 -16.0625 17.25 C-15.49660156 16.07953125 -14.93070313 14.9090625 -14.34765625 13.703125 C-13.90292969 12.81109375 -13.45820313 11.9190625 -13 11 C-25.12985335 19.22636331 -33.69651966 30.25865422 -36.6328125 44.91015625 C-36.75398438 45.59980469 -36.87515625 46.28945313 -37 47 C-37.27457031 48.23556641 -37.27457031 48.23556641 -37.5546875 49.49609375 C-39.00040504 56.95243146 -39.21135817 64.29710336 -39.25 71.875 C-39.25918457 72.8230249 -39.26836914 73.7710498 -39.27783203 74.74780273 C-39.18784022 96.82279313 -35.49126861 118.4452117 -31.73535156 140.13061523 C-24.92592443 179.66778596 -24.92592443 179.66778596 -31 192 C-36.62650457 198.35945919 -44.48658484 202.26986037 -52 206 C-52.83917969 206.44214844 -53.67835938 206.88429688 -54.54296875 207.33984375 C-61.98734643 211.04513915 -69.72274332 212.88384458 -77.82299805 214.54174805 C-79.27864567 214.84815722 -80.7285362 215.18326048 -82.17114258 215.54614258 C-90.23577448 217.44884263 -98.32850167 217.35229397 -106.5625 217.3125 C-107.69942291 217.31026428 -107.69942291 217.31026428 -108.85931396 217.3079834 C-119.872646 217.26895898 -130.28319024 216.72519733 -141 214 C-142.48380152 213.65766104 -143.96820465 213.31792168 -145.453125 212.98046875 C-156.34957599 210.433616 -156.34957599 210.433616 -160 208 C-159.29617187 207.95512451 -158.59234375 207.91024902 -157.8671875 207.86401367 C-135.89622363 206.42449964 -115.65221433 204.55127427 -95.890625 193.91796875 C-94 193 -94 193 -92 193 C-92 192.34 -92 191.68 -92 191 C-90.66549637 190.12203709 -89.32801026 189.2484424 -87.98046875 188.390625 C-81.25284305 183.66669058 -75.29685304 178.0181933 -71 171 C-71 170.34 -71 169.68 -71 169 C-70.40445313 168.44699219 -69.80890625 167.89398438 -69.1953125 167.32421875 C-66.49468495 164.46501342 -65.24842315 161.42772759 -63.875 157.8125 C-63.62363281 157.19052734 -63.37226563 156.56855469 -63.11328125 155.92773438 C-59.59338808 146.9252851 -58.55086304 137.82038685 -57.625 128.25 C-47.95968396 34.28372287 -47.95968396 34.28372287 -16.69921875 6.94921875 C-12.1158503 3.6393767 -5.81190957 0 0 0 Z " fill="#D28D5E" transform="translate(306,211)"/>
<path d="M0 0 C0.495 0.99 0.495 0.99 1 2 C-0.0117064 4.74053409 -1.08630431 7.38741906 -2.25 10.0625 C-2.90791392 11.62690544 -3.56418603 13.19200245 -4.21875 14.7578125 C-4.66637695 15.81572998 -4.66637695 15.81572998 -5.12304688 16.89501953 C-9.0550402 26.33311709 -10.5651408 35.92171349 -12 46 C-12.17015625 47.11761719 -12.3403125 48.23523438 -12.515625 49.38671875 C-14.7419746 68.28649086 -8.59860717 87.46960247 2 103 C2.73089844 103.73089844 3.46179688 104.46179688 4.21484375 105.21484375 C4.80394531 105.80394531 5.39304687 106.39304687 6 107 C6 107.66 6 108.32 6 109 C6.88365234 109.39832031 6.88365234 109.39832031 7.78515625 109.8046875 C10.05812354 111.03136826 11.57793351 112.3441234 13.4375 114.125 C18.7809503 118.90441944 24.85811035 122.34976331 31 126 C33.23139618 127.3713789 35.46060636 128.74632174 37.6875 130.125 C41.35715589 132.38627782 45.03849718 134.62076652 48.75 136.8125 C60.47613792 143.84438174 71.78844345 151.39376121 82.73046875 159.58984375 C84.87769243 161.19589723 87.03223795 162.68364208 89.2734375 164.16796875 C92.25352147 166.17034609 94.49428875 168.43317384 97 171 C98.07887442 171.88049197 99.16258975 172.7550718 100.25 173.625 C111.90991643 183.53592897 123.90396379 199.81120414 125.20605469 215.47949219 C125.41239494 220.99756176 125.26450972 226.4864418 125 232 C121.71321893 228.71321893 120.12901262 224.21551451 118.18554688 220.02929688 C116.02213849 215.54053592 113.77067712 212.37085002 110 209 C106.40581871 205.49567324 103.16430144 201.88757034 100 198 C104.20402145 199.40385636 106.92189207 201.40087599 110.1875 204.375 C111.04730469 205.14585937 111.90710938 205.91671875 112.79296875 206.7109375 C114.78484862 208.77685184 115.92534943 210.3704081 117 213 C117.66 213 118.32 213 119 213 C119.33 213 119.66 213 120 213 C118.2201733 199.87377807 109.35320879 187.89270939 99.16796875 179.73046875 C78.13974079 164.51028402 52.98811398 156.72702781 28.30273438 149.66064453 C25.80937586 148.94531076 23.31874179 148.22091294 20.828125 147.49609375 C9.68714457 144.26891064 9.68714457 144.26891064 -1.55297852 141.41333008 C-9.09628287 139.62716798 -16.01806522 137.36934659 -23 134 C-23.60183105 133.72704102 -24.20366211 133.45408203 -24.82373047 133.17285156 C-35.81717858 128.11871362 -35.81717858 128.11871362 -38.515625 123.28515625 C-39.30108387 120.47829587 -39.7298007 117.89960141 -40 115 C-40.17402344 113.96746094 -40.34804687 112.93492187 -40.52734375 111.87109375 C-44.06541875 82.89396706 -37.19448433 57.0478793 -23 32 C-22.04110294 30.25030882 -21.08264435 28.50037713 -20.125 26.75 C-19.41819929 25.49913276 -18.71010306 24.2489955 -18 23 C-17.443125 21.989375 -16.88625 20.97875 -16.3125 19.9375 C-15.879375 19.298125 -15.44625 18.65875 -15 18 C-14.34 18 -13.68 18 -13 18 C-12.7628125 17.28070313 -12.525625 16.56140625 -12.28125 15.8203125 C-10.79748841 12.55422754 -8.95495296 10.48139486 -6.5 7.875 C-4.08551892 5.29589521 -1.96265593 2.94398389 0 0 Z " fill="#592B9F" transform="translate(264,22)"/>
<path d="M0 0 C3.31360798 2.20907199 3.52183252 2.79477593 4.75 6.375 C10.05337478 20.30386358 19.17058338 32.84121239 30 43 C30.75539062 43.79535156 31.51078125 44.59070313 32.2890625 45.41015625 C35.18773555 48.17934966 38.24870273 50.37243827 41.625 52.5 C42.24036621 52.88873291 42.85573242 53.27746582 43.48974609 53.67797852 C51.92471159 58.91132735 59.64298064 62.35019254 69.56640625 63.640625 C72 64 72 64 74 65 C86.4390788 66.21704887 98.16003077 64.81768071 110 61 C110.70302246 60.77505859 111.40604492 60.55011719 112.13037109 60.31835938 C118.14888185 58.37336102 124.13344248 56.32812502 130.11523438 54.2734375 C163.54559902 42.89022634 207.19594323 28.4741932 241.08984375 44.45703125 C253.92380879 51.77142636 253.92380879 51.77142636 256 58 C255.46221924 57.88406494 254.92443848 57.76812988 254.37036133 57.64868164 C243.91380804 55.41635868 233.71274982 53.39097627 223 53 C226.70821628 50.64891442 230.48605238 50.56844942 234.75 50.375 C235.79607422 50.31699219 235.79607422 50.31699219 236.86328125 50.2578125 C238.57510818 50.16401376 240.28751682 50.08093826 242 50 C239.838672 49.00736762 237.67209092 48.03107524 235.5 47.0625 C234.59894531 46.64581055 234.59894531 46.64581055 233.6796875 46.22070312 C220.83969501 40.55198304 204.02405441 41.71053719 191 46 C189.91589844 46.3403125 188.83179688 46.680625 187.71484375 47.03125 C164.21116778 54.8746413 141.69914443 68.83439784 121.609375 83.16015625 C82.87683325 110.47007715 82.87683325 110.47007715 67 109 C56.43226829 104.27233055 45.91053356 96.4462356 38 88 C38 87.34 38 86.68 38 86 C37.01 85.67 36.02 85.34 35 85 C18.3020785 65.89784129 8.63328346 42.34606896 2.6875 18 C2.4205835 16.91283691 2.15366699 15.82567383 1.87866211 14.70556641 C1.6338208 13.66835449 1.38897949 12.63114258 1.13671875 11.5625 C0.91717529 10.63566406 0.69763184 9.70882812 0.47143555 8.75390625 C-0.03620529 5.78850563 -0.08043321 3.00283983 0 0 Z " fill="#00CBFD" transform="translate(109,156)"/>
<path d="M0 0 C1.04542969 -0.01224609 2.09085938 -0.02449219 3.16796875 -0.03710938 C4.67810547 -0.04000977 4.67810547 -0.04000977 6.21875 -0.04296875 C7.13591797 -0.04707764 8.05308594 -0.05118652 8.99804688 -0.05541992 C11.61817127 0.1989735 13.24956344 0.85928182 15.5 2.1875 C14.27023437 2.65800781 13.04046875 3.12851563 11.7734375 3.61328125 C10.14056477 4.2420311 8.50775562 4.87094609 6.875 5.5 C6.06675781 5.80873047 5.25851562 6.11746094 4.42578125 6.43554688 C-2.66438775 9.17362027 -8.12723933 11.67697623 -13.5 17.1875 C-15.15661761 18.20406081 -16.82111559 19.20815076 -18.5 20.1875 C-18.83 20.8475 -19.16 21.5075 -19.5 22.1875 C-20.16 22.1875 -20.82 22.1875 -21.5 22.1875 C-18.01111623 13.96761676 -8.80634975 8.74749133 -1.5 4.1875 C-13.70258498 3.66521037 -25.2821094 8.37365896 -34.5 16.1875 C-35.40234375 16.93 -36.3046875 17.6725 -37.234375 18.4375 C-61.65218466 39.48268402 -75.17691974 73.77584423 -87.3203125 102.92578125 C-87.79847412 104.07135498 -88.27663574 105.21692871 -88.76928711 106.3972168 C-89.68268121 108.59681571 -90.58780769 110.79987534 -91.48266602 113.00708008 C-95.51324561 122.75848232 -100.397411 132.0885412 -107.0625 140.3125 C-107.76503906 141.20195312 -108.46757812 142.09140625 -109.19140625 143.0078125 C-114.361013 147.88876101 -120.59677259 147.54278312 -127.3125 147.5 C-128.24030273 147.49436035 -129.16810547 147.4887207 -130.12402344 147.48291016 C-155.664819 147.04074006 -181.53934806 137.22524925 -201.5 121.1875 C-201.5 120.5275 -201.5 119.8675 -201.5 119.1875 C-202.23089844 118.93742187 -202.96179688 118.68734375 -203.71484375 118.4296875 C-211.22339126 115.08085425 -217.0799037 107.68710609 -222.875 101.9375 C-223.37459229 101.44266113 -223.87418457 100.94782227 -224.38891602 100.43798828 C-227.31023415 97.50336231 -229.97399084 94.46772042 -232.5 91.1875 C-231.51 90.6925 -231.51 90.6925 -230.5 90.1875 C-230.5 90.8475 -230.5 91.5075 -230.5 92.1875 C-229.80261719 92.44144531 -229.10523438 92.69539063 -228.38671875 92.95703125 C-225.15549525 94.33434573 -222.31367434 96.04991309 -219.3125 97.875 C-198.24631183 110.17041864 -172.3150499 117.46991518 -148.125 111.5 C-138.57260472 108.9019359 -129.67749854 105.73489856 -122.0234375 99.32421875 C-120.5 98.1875 -120.5 98.1875 -118.5 98.1875 C-118.5 97.5275 -118.5 96.8675 -118.5 96.1875 C-116.98950195 94.74658203 -116.98950195 94.74658203 -114.92578125 93.0703125 C-110.64367169 89.42576357 -107.17911785 85.45312999 -103.6875 81.0625 C-102.47207651 79.56061306 -101.25592221 78.05931727 -100.0390625 76.55859375 C-99.44383789 75.82108887 -98.84861328 75.08358398 -98.23535156 74.32373047 C-95.71715948 71.22381759 -93.1476188 68.16917131 -90.5625 65.125 C-90.11173096 64.59398682 -89.66096191 64.06297363 -89.1965332 63.51586914 C-83.4510173 56.76368316 -77.57856711 50.14066704 -71.61328125 43.58203125 C-70.18348081 41.96194313 -68.80226 40.2978815 -67.46875 38.59765625 C-65.66266964 36.38664121 -63.87201374 34.63663571 -61.6875 32.8125 C-59.08939634 30.5998293 -56.65674934 28.35337306 -54.3125 25.875 C-39.61867668 10.97989143 -21.13330248 0.01302916 0 0 Z " fill="#437720" transform="translate(320.5,201.8125)"/>
<path d="M0 0 C0.66 0.33 1.32 0.66 2 1 C1.85925049 1.62801514 1.71850098 2.25603027 1.57348633 2.90307617 C-0.03432714 10.7465699 -0.33347307 18.32175984 -0.3125 26.3125 C-0.32861328 27.52873047 -0.34472656 28.74496094 -0.36132812 29.99804688 C-0.37296132 51.90334391 6.46259476 74.17175207 22 90.04296875 C23.22410786 91.23992906 24.46094363 92.42413001 25.71484375 93.58984375 C27 95 27 95 27 97 C27.68449219 97.25136719 28.36898437 97.50273437 29.07421875 97.76171875 C31.82445628 98.92570446 34.36581774 100.29071369 36.95874023 101.76660156 C48.88824554 108.49727465 61.36853919 111.67928387 74.609375 114.91015625 C89.62327718 118.60124716 104.42083886 122.85321707 119 128 C119.68255859 128.23686523 120.36511719 128.47373047 121.06835938 128.71777344 C144.25573416 136.80561852 167.48732285 147.8648021 180 170 C180.53238281 170.80179688 181.06476563 171.60359375 181.61328125 172.4296875 C183.22696115 175.4206773 183.70816321 177.95714246 184.1875 181.3125 C184.34605469 182.38113281 184.50460937 183.44976562 184.66796875 184.55078125 C184.77753906 185.35902344 184.88710938 186.16726562 185 187 C184.34 186.67 183.68 186.34 183 186 C183 185.34 183 184.68 183 184 C182.34 184 181.68 184 181 184 C179.5546875 182.4609375 179.5546875 182.4609375 177.875 180.375 C173.42245156 175.14162886 168.79945172 170.60390293 162 169 C160 167.66666667 158 166.33333333 156 165 C153.69647302 163.89690257 151.37361193 162.94944477 149 162 C154.48970474 160.17009842 159.94384891 163.68236359 165 166 C168.78522221 168.17258316 172.41749396 170.50875833 176 173 C173.32910782 167.14676821 170.96441926 162.25521651 166 158 C165.071875 157.071875 164.14375 156.14375 163.1875 155.1875 C147.88966171 142.34528 127.14657648 139.3485893 108 137 C107.25293289 136.90714218 106.50586578 136.81428436 105.73616028 136.71861267 C97.73897381 135.85910034 89.78464711 135.94020172 81.75666618 136.04709625 C78.33888097 136.08986987 74.92104128 136.11278723 71.50308323 136.13712692 C65.17051276 136.18243108 58.83825192 136.23527381 52.50610352 136.32226562 C48.07133821 136.38242036 43.6369711 136.4168284 39.20184517 136.43544769 C37.53360657 136.44701465 35.86540004 136.46753715 34.19740105 136.49808502 C21.85699317 136.71830644 9.24453595 135.62226797 -2 130 C-3.20667816 127.72336092 -4.31276583 125.46810515 -5.375 123.125 C-5.84353394 122.09681152 -5.84353394 122.09681152 -6.3215332 121.04785156 C-21.3902464 87.60008205 -20.09584544 51.83903019 -7.60302734 17.60449219 C-5.32735187 11.62193028 -2.85306523 5.732426 0 0 Z " fill="#0001D3" transform="translate(200,51)"/>
<path d="M0 0 C0.33 0.66 0.66 1.32 1 2 C0.67 2.99 0.34 3.98 0 5 C-1.84765625 5.73046875 -1.84765625 5.73046875 -4.0625 6.1875 C-4.79597656 6.34605469 -5.52945312 6.50460938 -6.28515625 6.66796875 C-7.13400391 6.83232422 -7.13400391 6.83232422 -8 7 C-8 7.33 -8 7.66 -8 8 C-8.97582031 8.27714844 -9.95164062 8.55429688 -10.95703125 8.83984375 C-12.24219751 9.205694 -13.52735321 9.57158136 -14.8125 9.9375 C-16.07707031 10.29714844 -17.34164063 10.65679687 -18.64453125 11.02734375 C-20.77501982 11.64491261 -22.89563892 12.29854631 -25 13 C-24 10 -24 10 -21.4453125 8.53515625 C-14.38472332 5.40357728 -7.31319967 2.49147083 0 0 Z " fill="#036021" transform="translate(336,203)"/>
<path d="M0 0 C0.33 0.66 0.66 1.32 1 2 C-0.03049052 4.82572903 -1.12164552 7.55533788 -2.3125 10.3125 C-2.95450951 11.8293922 -3.5964386 13.34631844 -4.23828125 14.86328125 C-4.69581787 15.93376709 -4.69581787 15.93376709 -5.16259766 17.02587891 C-6.14301511 19.33714873 -7.08128123 21.66356292 -8 24 C-8.66 24 -9.32 24 -10 24 C-8.515 18.555 -8.515 18.555 -7 13 C-7.99 13.99 -8.98 14.98 -10 16 C-10.66 15.67 -11.32 15.34 -12 15 C-8 10 -4 5 0 0 Z " fill="#4E2598" transform="translate(264,22)"/>
<path d="M0 0 C0.93908203 0.08765625 1.87816406 0.1753125 2.84570312 0.265625 C4.3084668 0.4203125 4.3084668 0.4203125 5.80078125 0.578125 C6.75662109 0.66578125 7.71246094 0.7534375 8.69726562 0.84375 C14.63813086 1.42690242 20.31320541 2.41842583 26.11328125 3.828125 C24.11328125 5.828125 24.11328125 5.828125 21.57421875 5.875 C16.33352789 5.37083227 11.39693954 4.74454795 6.3359375 3.3046875 C1.3522157 2.23612149 -3.80827296 2.12230326 -8.88671875 1.828125 C-5.70563441 -0.06925134 -3.66511617 -0.3542934 0 0 Z " fill="#0579EE" transform="translate(334.88671875,208.171875)"/>
<path d="M0 0 C0.66 0 1.32 0 2 0 C2 0.66 2 1.32 2 2 C2.67804688 2.24621094 3.35609375 2.49242187 4.0546875 2.74609375 C7.57979955 4.24683774 10.82968421 6.12346681 14.125 8.0625 C18.89033897 10.88515439 18.89033897 10.88515439 24 13 C24 13.66 24 14.32 24 15 C18.52067211 13.45454854 13.88570819 10.84456788 9 8 C8.67 8.66 8.34 9.32 8 10 C7.236875 9.071875 6.47375 8.14375 5.6875 7.1875 C4.23623991 5.43939125 2.79578206 3.79578206 1.1875 2.1875 C0.795625 1.795625 0.40375 1.40375 0 1 C0 0.67 0 0.34 0 0 Z " fill="#396A1A" transform="translate(88,292)"/>
<path d="M0 0 C0.66 0 1.32 0 2 0 C2.10957031 1.21816406 2.21914062 2.43632813 2.33203125 3.69140625 C2.49159115 5.31516288 2.65178093 6.9388577 2.8125 8.5625 C2.88275391 9.36236328 2.95300781 10.16222656 3.02539062 10.98632812 C3.42832205 14.93505608 3.9631858 18.28191191 5.63671875 21.90234375 C7 25 7 25 6 28 C4 27 4 27 3.18359375 24.7421875 C1.00476229 16.36908651 -0.17654203 8.65055961 0 0 Z " fill="#4B239C" transform="translate(223,121)"/>
<path d="M0 0 C0.66 0.33 1.32 0.66 2 1 C1.47164812 5.66710831 0.83081108 10.30343476 0.0625 14.9375 C-0.09089844 15.87464844 -0.24429687 16.81179687 -0.40234375 17.77734375 C-0.59957031 18.51082031 -0.79679687 19.24429687 -1 20 C-1.66 20.33 -2.32 20.66 -3 21 C-3 15.39 -3 9.78 -3 4 C-2.01 4.495 -2.01 4.495 -1 5 C-0.67 3.35 -0.34 1.7 0 0 Z " fill="#D2A228" transform="translate(286,238)"/>
<path d="M0 0 C4.98012761 1.50912958 8.24259942 4.55661849 12 8 C11.01 8.495 11.01 8.495 10 9 C9.67 9.66 9.34 10.32 9 11 C7.49703315 9.35687553 5.99769719 7.71042916 4.5 6.0625 C3.6646875 5.14597656 2.829375 4.22945312 1.96875 3.28515625 C0 1 0 1 0 0 Z " fill="#4921A2" transform="translate(364,220)"/>
<path d="M0 0 C0.66 0.33 1.32 0.66 2 1 C1.34 4.63 0.68 8.26 0 12 C-0.66 11.34 -1.32 10.68 -2 10 C-2.99 11.98 -3.98 13.96 -5 16 C-6.39211215 11.82366356 -4.9535579 10.21039485 -3.0625 6.3125 C-2.49660156 5.13300781 -1.93070313 3.95351563 -1.34765625 2.73828125 C-0.90292969 1.83464844 -0.45820313 0.93101563 0 0 Z " fill="#181ECB" transform="translate(200,51)"/>
<path d="M0 0 C4.01778372 1.33926124 4.78023848 3.49134469 7 7 C7.66 7.66 8.32 8.32 9 9 C8.01 9 7.02 9 6 9 C5.67 9.99 5.34 10.98 5 12 C4.16180842 10.37750059 3.3295884 8.75191503 2.5 7.125 C2.0359375 6.22007812 1.571875 5.31515625 1.09375 4.3828125 C0 2 0 2 0 0 Z " fill="#04470A" transform="translate(89,223)"/>
<path d="M0 0 C0.66 0.33 1.32 0.66 2 1 C-0.31 3.97 -2.62 6.94 -5 10 C-5.33 9.01 -5.66 8.02 -6 7 C-7.32 7.33 -8.64 7.66 -10 8 C-7.92141021 5.81907964 -5.78143382 4.03609531 -3.3125 2.3125 C-2.68988281 1.87550781 -2.06726563 1.43851563 -1.42578125 0.98828125 C-0.95527344 0.66214844 -0.48476563 0.33601562 0 0 Z " fill="#80149F" transform="translate(333,12)"/>
<path d="M0 0 C0.33 0.66 0.66 1.32 1 2 C3.02463255 2.65213292 3.02463255 2.65213292 5 3 C3.75579353 3.5345256 2.50429064 4.05208611 1.25 4.5625 C0.55390625 4.85253906 -0.1421875 5.14257812 -0.859375 5.44140625 C-3 6 -3 6 -7 5 C-4.69 3.35 -2.38 1.7 0 0 Z " fill="#DBC46F" transform="translate(270,489)"/>
<path d="M0 0 C1.41805831 0.28482368 2.83440379 0.57818144 4.25 0.875 C5.03890625 1.03742188 5.8278125 1.19984375 6.640625 1.3671875 C11.13948362 2.57383501 13.40887653 4.1133148 16 8 C11.96369605 8 10.32777487 6.23984847 7 4 C4.69710069 2.8947933 2.37397342 1.94958937 0 1 C0 0.67 0 0.34 0 0 Z " fill="#0C20CB" transform="translate(349,212)"/>
<path d="M0 0 C-0.598125 0.28875 -1.19625 0.5775 -1.8125 0.875 C-4.19327792 2.04742026 -4.19327792 2.04742026 -7 4 C-8.98799818 4.70164642 -10.98698517 5.37372872 -13 6 C-12 3 -12 3 -10.29296875 1.796875 C-9.59816406 1.45140625 -8.90335937 1.1059375 -8.1875 0.75 C-7.50042969 0.39421875 -6.81335938 0.0384375 -6.10546875 -0.328125 C-3.64922558 -1.11193544 -2.39957614 -0.84119973 0 0 Z " fill="#085411" transform="translate(324,210)"/>
<path d="M0 0 C6 6 6 6 6.0625 8.5625 C6.041875 9.366875 6.02125 10.17125 6 11 C0 3.28571429 0 3.28571429 0 0 Z " fill="#7E15A7" transform="translate(374,230)"/>
<path d="M0 0 C0.66 0 1.32 0 2 0 C3.5625 2.8125 3.5625 2.8125 5 6 C4.67 6.99 4.34 7.98 4 9 C2 8 2 8 1.3671875 6.15234375 C1.20476562 5.42144531 1.04234375 4.69054687 0.875 3.9375 C0.70742187 3.20402344 0.53984375 2.47054687 0.3671875 1.71484375 C0.24601563 1.14894531 0.12484375 0.58304688 0 0 Z " fill="#3F1A9F" transform="translate(225,140)"/>
<path d="M0 0 C1.485 0.99 1.485 0.99 3 2 C2.67 3.98 2.34 5.96 2 8 C0 6 0 6 -0.125 2.875 C-0.08375 1.92625 -0.0425 0.9775 0 0 Z " fill="#31C7FB" transform="translate(109,156)"/>
</svg>
